<?xml version="1.0" standalone="no"?>
<!DOCTYPE svg PUBLIC "-//W3C//DTD SVG 20010904//EN"
 "http://www.w3.org/TR/2001/REC-SVG-20010904/DTD/svg10.dtd">
<svg version="1.0" xmlns="http://www.w3.org/2000/svg"
 width="1000.000000pt" height="1000.000000pt" viewBox="0 0 1000.000000 1000.000000"
 preserveAspectRatio="xMidYMid meet">

<g transform="translate(0.000000,1000.000000) scale(0.100000,-0.100000)"
fill="#d4d4d4" stroke="none">
<path fill="#c24e18" d="M5555 6179 c-250 -26 -515 -114 -728 -243 -305 -183 -557 -459 -703
-771 -64 -139 -97 -238 -138 -417 l-6 -28 65 0 c57 0 65 2 65 19 0 69 99 335
176 473 150 267 393 509 659 653 171 93 389 164 568 186 51 6 107 13 125 15
l32 5 0 59 c0 51 -3 60 -17 59 -10 -1 -54 -5 -98 -10z"/>
<path fill="#c24e18" d="M5582 5699 c-416 -54 -804 -321 -1007 -693 -42 -77 -95 -203 -109
-259 l-6 -27 63 0 64 0 23 63 c150 416 561 743 999 793 l61 7 0 63 c0 45 -4
64 -12 63 -7 -1 -41 -5 -76 -10z"/>
<path fill="#c24e18" d="M5445 5240 c-131 -34 -213 -80 -312 -173 -82 -77 -162 -214 -187
-319 l-6 -28 60 0 c49 0 62 3 66 18 3 9 22 51 41 92 87 181 292 310 495 310
l68 0 0 60 0 60 -77 -1 c-43 0 -109 -8 -148 -19z"/>
<path d="M2667 4863 c-4 -3 -7 -96 -7 -207 l0 -200 -42 43 c-54 55 -99 77
-180 91 -215 38 -418 -126 -435 -352 -13 -173 73 -325 226 -397 48 -22 69 -26
151 -26 84 0 102 3 152 28 32 16 73 47 93 69 l35 42 0 -62 0 -62 65 0 65 0 0
520 0 520 -58 0 c-32 0 -62 -3 -65 -7z m-152 -421 c84 -43 135 -121 143 -218
13 -163 -98 -284 -260 -284 -110 0 -184 42 -234 132 -25 46 -29 63 -29 133 0
88 14 125 69 183 31 34 70 58 116 73 43 14 152 4 195 -19z"/>
<path d="M3395 4862 c-64 -13 -88 -100 -40 -147 69 -70 187 31 130 112 -17 24
-61 41 -90 35z"/>
<path d="M5594 4862 c-35 -5 -68 -48 -68 -89 0 -44 40 -83 85 -83 36 0 89 47
89 80 0 56 -52 101 -106 92z"/>
<path d="M6413 4590 c-140 -29 -222 -144 -191 -267 20 -80 67 -115 218 -163
153 -48 190 -73 190 -130 0 -116 -222 -134 -305 -25 l-30 40 -40 -23 c-22 -12
-46 -26 -54 -31 -32 -20 53 -115 138 -155 69 -31 227 -30 293 3 60 29 115 89
124 136 12 66 0 140 -30 179 -33 44 -72 65 -202 104 -132 41 -168 65 -172 116
-4 49 24 81 84 94 77 17 155 -9 190 -63 l16 -25 47 27 c25 14 50 29 54 33 15
13 -81 107 -130 128 -58 24 -143 34 -200 22z"/>
<path d="M7549 4590 c-112 -19 -221 -102 -275 -207 -27 -55 -29 -65 -29 -178
0 -111 2 -124 28 -177 39 -79 104 -143 185 -181 63 -30 74 -32 177 -32 99 0
116 3 171 28 64 30 161 117 150 135 -3 6 -27 22 -52 36 l-45 25 -38 -38 c-49
-49 -97 -66 -186 -65 -133 1 -223 63 -259 181 l-7 23 313 2 313 3 3 49 c12
187 -122 362 -302 395 -66 12 -80 12 -147 1z m187 -144 c59 -27 100 -75 119
-141 l14 -45 -251 0 -250 0 7 28 c10 43 52 109 84 132 81 57 189 67 277 26z"/>
<path d="M3350 4205 l0 -375 65 0 65 0 0 375 0 375 -65 0 -65 0 0 -375z"/>
<path d="M3980 4565 c0 -8 40 -151 89 -318 49 -166 97 -328 106 -360 l17 -58
71 3 71 3 85 272 c47 149 88 269 91 267 3 -3 43 -125 90 -272 l86 -267 68 0
68 0 103 350 c56 193 105 360 109 373 8 23 6 23 -55 20 l-63 -3 -76 -265 c-42
-146 -79 -272 -82 -280 -3 -8 -24 46 -47 120 -24 74 -63 201 -89 283 l-45 147
-63 0 -63 0 -41 -132 c-23 -73 -62 -199 -88 -281 -25 -81 -49 -142 -53 -135
-4 7 -39 126 -78 263 -40 138 -74 258 -77 268 -4 14 -17 17 -70 17 -50 0 -64
-3 -64 -15z"/>
<path d="M5550 4205 l0 -375 65 0 65 0 -2 373 -3 372 -62 3 -63 3 0 -376z"/>
</g>
</svg>