<svg xmlns="http://www.w3.org/2000/svg" 
    width="16" 
    height="16" 
    viewBox="0 0 24 24" 
    fill="none">
<g clip-path="url(#clip0_1064_11097)">
<path fill-rule="evenodd" clip-rule="evenodd" d="M2 6C2 5.44772 2.44772 5 3 5H21C21.5523 5 22 5.44772 22 6C22 6.55228 21.5523 7 21 7V19C21 19.5523 20.5523 20 20 20C19.4477 20 19 19.5523 19 19V17H15.5C14.6716 17 14 16.3284 14 15.5V11H5V19C5 19.5523 4.55228 20 4 20C3.44772 20 3 19.5523 3 19V7C2.44772 7 2 6.55228 2 6ZM19 15V11H16V15H19ZM19 9V7H16V9H19ZM14 9H5V7H14V9Z" fill="white"/>
</g>
<defs>
<clipPath id="clip0_1064_11097">
<rect width="24" height="24" fill="#1F1F25"/>
</clipPath>
</defs>
</svg>