<svg width="40" height="40" viewBox="0 0 40 40" fill="none" xmlns="http://www.w3.org/2000/svg">
<path d="M20.6836 39.3596C20.2991 39.7199 19.7009 39.7199 19.3164 39.3596L10.9693 31.5409C4.9147 25.8695 4.61347 16.3604 10.297 10.3171L10.5301 10.0693C15.6636 4.61091 24.3364 4.6109 29.4699 10.0693L29.703 10.3171C35.3865 16.3604 35.0853 25.8695 29.0307 31.5409L20.6836 39.3596Z" fill="#B94E18"/>
<g clip-path="url(#clip0_1125_3065)">
<path fill-rule="evenodd" clip-rule="evenodd" d="M12.5 16.5C12.5 16.0858 12.8358 15.75 13.25 15.75H26.75C27.1642 15.75 27.5 16.0858 27.5 16.5C27.5 16.9142 27.1642 17.25 26.75 17.25V26.25C26.75 26.6642 26.4142 27 26 27C25.5858 27 25.25 26.6642 25.25 26.25V24.75H22.625C22.0037 24.75 21.5 24.2463 21.5 23.625V20.25H14.75V26.25C14.75 26.6642 14.4142 27 14 27C13.5858 27 13.25 26.6642 13.25 26.25V17.25C12.8358 17.25 12.5 16.9142 12.5 16.5ZM25.25 23.25V20.25H23V23.25H25.25ZM25.25 18.75V17.25H23V18.75H25.25ZM21.5 18.75H14.75V17.25H21.5V18.75Z" fill="white"/>
</g>
<defs>
<clipPath id="clip0_1125_3065">
<rect width="18" height="18" fill="white" transform="translate(11 12)"/>
</clipPath>
</defs>
</svg>
