<svg width="16" height="16" viewBox="0 0 16 16" fill="none" xmlns="http://www.w3.org/2000/svg">
<g id="li:door-closed">
<g id="Vector">
<path fill-rule="evenodd" clip-rule="evenodd" d="M3.91914 2.58579C4.29421 2.21071 4.80292 2 5.33335 2H10.6667C11.1971 2 11.7058 2.21071 12.0809 2.58579C12.456 2.96086 12.6667 3.46957 12.6667 4V13.3333C12.6667 13.7015 12.3682 14 12 14C11.6318 14 11.3334 13.7015 11.3334 13.3333V4C11.3334 3.82319 11.2631 3.65362 11.1381 3.5286C11.0131 3.40357 10.8435 3.33333 10.6667 3.33333H5.33335C5.15654 3.33333 4.98697 3.40357 4.86195 3.5286C4.73692 3.65362 4.66669 3.82319 4.66669 4V13.3333C4.66669 13.7015 4.36821 14 4.00002 14C3.63183 14 3.33335 13.7015 3.33335 13.3333V4C3.33335 3.46957 3.54407 2.96086 3.91914 2.58579Z" fill="black"/>
<path fill-rule="evenodd" clip-rule="evenodd" d="M0.666687 13.3333C0.666687 12.9651 0.965164 12.6667 1.33335 12.6667H14.6667C15.0349 12.6667 15.3334 12.9651 15.3334 13.3333C15.3334 13.7015 15.0349 14 14.6667 14H1.33335C0.965164 14 0.666687 13.7015 0.666687 13.3333Z" fill="black"/>
<path fill-rule="evenodd" clip-rule="evenodd" d="M9.33335 7.33333C9.70154 7.33333 10 7.63181 10 8V8.00667C10 8.37486 9.70154 8.67333 9.33335 8.67333C8.96516 8.67333 8.66669 8.37486 8.66669 8.00667V8C8.66669 7.63181 8.96516 7.33333 9.33335 7.33333Z" fill="black"/>
</g>
</g>
</svg>