<svg width="40" height="40" viewBox="0 0 40 40" fill="none" xmlns="http://www.w3.org/2000/svg">
<path d="M20.6836 39.3596C20.2991 39.7199 19.7009 39.7199 19.3164 39.3596L10.9693 31.5409C4.9147 25.8695 4.61347 16.3604 10.297 10.3171L10.5301 10.0693C15.6636 4.61091 24.3364 4.6109 29.4699 10.0693L29.703 10.3171C35.3865 16.3604 35.0853 25.8695 29.0307 31.5409L20.6836 39.3596Z" fill="#B94E18"/>
<path fill-rule="evenodd" clip-rule="evenodd" d="M20 14C20 13.5858 20.3358 13.25 20.75 13.25H23C23.5967 13.25 24.169 13.4871 24.591 13.909C25.0129 14.331 25.25 14.9033 25.25 15.5V26C25.25 26.4142 24.9142 26.75 24.5 26.75C24.0858 26.75 23.75 26.4142 23.75 26V15.5C23.75 15.3011 23.671 15.1103 23.5303 14.9697C23.3897 14.829 23.1989 14.75 23 14.75H20.75C20.3358 14.75 20 14.4142 20 14Z" fill="white"/>
<path fill-rule="evenodd" clip-rule="evenodd" d="M11.75 26C11.75 25.5858 12.0858 25.25 12.5 25.25H14.75C15.1642 25.25 15.5 25.5858 15.5 26C15.5 26.4142 15.1642 26.75 14.75 26.75H12.5C12.0858 26.75 11.75 26.4142 11.75 26Z" fill="white"/>
<path fill-rule="evenodd" clip-rule="evenodd" d="M20 26C20 25.5858 20.3358 25.25 20.75 25.25H27.5C27.9142 25.25 28.25 25.5858 28.25 26C28.25 26.4142 27.9142 26.75 27.5 26.75H20.75C20.3358 26.75 20 26.4142 20 26Z" fill="white"/>
<path fill-rule="evenodd" clip-rule="evenodd" d="M18.5 19.25C18.9142 19.25 19.25 19.5858 19.25 20V20.0075C19.25 20.4217 18.9142 20.7575 18.5 20.7575C18.0858 20.7575 17.75 20.4217 17.75 20.0075V20C17.75 19.5858 18.0858 19.25 18.5 19.25Z" fill="white"/>
<path fill-rule="evenodd" clip-rule="evenodd" d="M19.0681 13.6941L16.0682 14.4441C15.9059 14.4847 15.7618 14.5783 15.6589 14.7101C15.556 14.8419 15.5001 15.0043 15.5 15.1715V25.4144L20 26.5391V14.422C19.9999 14.3077 19.9737 14.1946 19.9239 14.0925C19.8739 13.9902 19.8012 13.9005 19.7114 13.8305C19.6216 13.7604 19.5169 13.7117 19.4055 13.688C19.294 13.6644 19.1786 13.6665 19.0681 13.6941ZM18.7044 12.2389C19.036 12.156 19.3821 12.1498 19.7165 12.2206C20.0508 12.2915 20.3647 12.4376 20.6341 12.6479C20.9036 12.8581 21.1216 13.127 21.2717 13.4341C21.4219 13.7416 21.4998 14.0796 21.5 14.421V26.5393C21.4999 26.7671 21.448 26.9922 21.348 27.1969C21.2481 27.4017 21.1029 27.581 20.9233 27.7212C20.7437 27.8615 20.5346 27.959 20.3117 28.0063C20.0888 28.0537 19.8581 28.0496 19.637 27.9945L14.5681 26.7276C14.2342 26.6442 14 26.3442 14 26V15.1715C14.0001 14.6698 14.1679 14.1824 14.4767 13.7869C14.7855 13.3915 15.2176 13.1106 15.7043 12.9889L18.7044 12.2389Z" fill="white"/>
</svg>
