<svg width="40" height="40" viewBox="0 0 40 40" fill="none" xmlns="http://www.w3.org/2000/svg">
    <path d="M20.6836 39.3596C20.2991 39.7199 19.7009 39.7199 19.3164 39.3596L10.9693 31.5409C4.9147 25.8695 4.61347 16.3604 10.297 10.3171L10.5301 10.0693C15.6636 4.61091 24.3364 4.6109 29.4699 10.0693L29.703 10.3171C35.3865 16.3604 35.0853 25.8695 29.0307 31.5409L20.6836 39.3596Z" fill="#B94E18"/>
    <path d="M27.2108 11H24.8028C23.8162 11 23.0136 11.8853 23.0136 12.9734C23.0136 13.7267 23.3984 14.3825 23.9624 14.7149V22.368C23.9624 23.5069 23.1223 24.4335 22.0897 24.4335C21.2811 24.4335 20.5759 23.8575 20.3202 23.0412C20.7416 22.6798 21.0136 22.1159 21.0136 21.4829C21.0136 20.7689 20.668 20.1423 20.1517 19.7958C19.9773 18.642 19.4573 17.5837 18.6656 16.7843C17.7841 15.8942 16.6416 15.404 15.4485 15.404H14.3369C14.0268 14.8157 13.4494 14.4191 12.7893 14.4191C11.8027 14.4191 11 15.3043 11 16.3925V19.0483C11 20.1364 11.8027 21.0217 12.7892 21.0217C13.4739 21.0217 14.0697 20.5951 14.3704 19.9705H15.4485C15.544 19.9705 15.636 19.995 15.7188 20.0389C15.3677 20.3994 15.1474 20.9132 15.1474 21.4829C15.1474 22.2508 15.5475 22.9172 16.1295 23.2432C16.5214 26.5037 19.0685 29 22.0896 29C25.4052 29 28.1027 26.0249 28.1027 22.368V14.683C28.6384 14.3417 29 13.7035 29 12.9734C29 11.8852 28.1973 11 27.2108 11ZM13.408 19.0483C13.408 19.4221 13.1323 19.7307 12.7892 19.7307C12.4481 19.7307 12.1705 19.4246 12.1705 19.0483V16.3925C12.1705 16.0162 12.4481 15.7101 12.7892 15.7101C13.1316 15.7101 13.408 16.0182 13.408 16.3925V19.0483ZM15.4485 18.6795H14.5785V16.695H15.4485C17.0403 16.695 18.4347 17.8812 18.8897 19.5094H16.9366C16.928 19.5094 16.9195 19.5095 16.9108 19.5097C16.5783 18.9985 16.0363 18.6795 15.4485 18.6795ZM16.3179 21.4829C16.3179 21.1044 16.598 20.8005 16.9367 20.8005H19.2242C19.5557 20.8005 19.843 21.0975 19.843 21.4829C19.843 21.865 19.5582 22.1653 19.2242 22.1653H16.9367C16.599 22.1653 16.3179 21.8621 16.3179 21.4829ZM26.9322 22.368C26.9322 25.3131 24.7598 27.709 22.0896 27.709C19.7762 27.709 17.8077 25.8918 17.3485 23.4563H19.2114C19.6257 24.786 20.7737 25.7244 22.0896 25.7244C23.7677 25.7244 25.1328 24.2187 25.1328 22.368V14.9468H26.9322V22.368ZM27.2107 13.6558H24.8027C24.4648 13.6558 24.184 13.3525 24.184 12.9734C24.184 12.5971 24.4616 12.291 24.8027 12.291H27.2107C27.5519 12.291 27.8294 12.5971 27.8294 12.9734C27.8295 13.351 27.5502 13.6558 27.2107 13.6558Z" fill="white"/>
</svg>
