<svg width="16" height="16" viewBox="0 0 16 16" fill="none" xmlns="http://www.w3.org/2000/svg">
<g clip-path="url(#clip0_1944_14420)">
<path fill-rule="evenodd" clip-rule="evenodd" d="M8.00002 1.99996C4.68631 1.99996 2.00002 4.68625 2.00002 7.99996C2.00002 11.3137 4.68631 14 8.00002 14C11.3137 14 14 11.3137 14 7.99996C14 4.68625 11.3137 1.99996 8.00002 1.99996ZM0.666687 7.99996C0.666687 3.94987 3.94993 0.666626 8.00002 0.666626C12.0501 0.666626 15.3334 3.94987 15.3334 7.99996C15.3334 12.05 12.0501 15.3333 8.00002 15.3333C3.94993 15.3333 0.666687 12.05 0.666687 7.99996Z" fill="#1F1F25"/>
<path fill-rule="evenodd" clip-rule="evenodd" d="M2.81528 2.81522C3.07563 2.55487 3.49774 2.55487 3.75809 2.81522L6.58476 5.64189C6.84511 5.90224 6.84511 6.32435 6.58476 6.5847C6.32441 6.84505 5.9023 6.84505 5.64195 6.5847L2.81528 3.75803C2.55493 3.49768 2.55493 3.07557 2.81528 2.81522Z" fill="#1F1F25"/>
<path fill-rule="evenodd" clip-rule="evenodd" d="M13.1848 2.81522C13.4451 3.07557 13.4451 3.49768 13.1848 3.75803L10.3581 6.5847C10.0977 6.84505 9.67563 6.84505 9.41528 6.5847C9.15493 6.32435 9.15493 5.90224 9.41528 5.64189L12.2419 2.81522C12.5023 2.55487 12.9244 2.55487 13.1848 2.81522Z" fill="#1F1F25"/>
<path fill-rule="evenodd" clip-rule="evenodd" d="M9.41528 9.41522C9.67563 9.15487 10.0977 9.15487 10.3581 9.41522L13.1848 12.2419C13.4451 12.5022 13.4451 12.9243 13.1848 13.1847C12.9244 13.445 12.5023 13.445 12.2419 13.1847L9.41528 10.358C9.15493 10.0977 9.15493 9.67557 9.41528 9.41522Z" fill="#1F1F25"/>
<path fill-rule="evenodd" clip-rule="evenodd" d="M6.58476 9.41522C6.84511 9.67557 6.84511 10.0977 6.58476 10.358L3.75809 13.1847C3.49774 13.445 3.07563 13.445 2.81528 13.1847C2.55493 12.9243 2.55493 12.5022 2.81528 12.2419L5.64195 9.41522C5.9023 9.15487 6.32441 9.15487 6.58476 9.41522Z" fill="#1F1F25"/>
<path fill-rule="evenodd" clip-rule="evenodd" d="M8.00002 5.99996C6.89545 5.99996 6.00002 6.89539 6.00002 7.99996C6.00002 9.10453 6.89545 9.99996 8.00002 9.99996C9.10459 9.99996 10 9.10453 10 7.99996C10 6.89539 9.10459 5.99996 8.00002 5.99996ZM4.66669 7.99996C4.66669 6.15901 6.15907 4.66663 8.00002 4.66663C9.84097 4.66663 11.3334 6.15901 11.3334 7.99996C11.3334 9.84091 9.84097 11.3333 8.00002 11.3333C6.15907 11.3333 4.66669 9.84091 4.66669 7.99996Z" fill="#1F1F25"/>
</g>
<defs>
<clipPath id="clip0_1944_14420">
<rect width="16" height="16" fill="white"/>
</clipPath>
</defs>
</svg>
