<svg width="40" height="40" viewBox="0 0 40 40" fill="none" xmlns="http://www.w3.org/2000/svg">
    <path d="M20.6836 39.3596C20.2991 39.7199 19.7009 39.7199 19.3164 39.3596L10.9693 31.5409C4.9147 25.8695 4.61347 16.3604 10.297 10.3171L10.5301 10.0693C15.6636 4.61091 24.3364 4.6109 29.4699 10.0693L29.703 10.3171C35.3865 16.3604 35.0853 25.8695 29.0307 31.5409L20.6836 39.3596Z" fill="#B94E18"/>
    <g clip-path="url(#clip0_1125_3058)">
    <path fill-rule="evenodd" clip-rule="evenodd" d="M20 14.25C16.2721 14.25 13.25 17.2721 13.25 21C13.25 24.7279 16.2721 27.75 20 27.75C23.7279 27.75 26.75 24.7279 26.75 21C26.75 17.2721 23.7279 14.25 20 14.25ZM11.75 21C11.75 16.4437 15.4437 12.75 20 12.75C24.5563 12.75 28.25 16.4437 28.25 21C28.25 25.5563 24.5563 29.25 20 29.25C15.4437 29.25 11.75 25.5563 11.75 21Z" fill="white"/>
    <path fill-rule="evenodd" clip-rule="evenodd" d="M14.1672 15.1672C14.4601 14.8743 14.9349 14.8743 15.2278 15.1672L18.4078 18.3472C18.7007 18.6401 18.7007 19.1149 18.4078 19.4078C18.1149 19.7007 17.6401 19.7007 17.3472 19.4078L14.1672 16.2278C13.8743 15.9349 13.8743 15.4601 14.1672 15.1672Z" fill="white"/>
    <path fill-rule="evenodd" clip-rule="evenodd" d="M25.8328 15.1672C26.1257 15.4601 26.1257 15.9349 25.8328 16.2278L22.6528 19.4078C22.3599 19.7007 21.8851 19.7007 21.5922 19.4078C21.2993 19.1149 21.2993 18.6401 21.5922 18.3472L24.7722 15.1672C25.0651 14.8743 25.5399 14.8743 25.8328 15.1672Z" fill="white"/>
    <path fill-rule="evenodd" clip-rule="evenodd" d="M21.5922 22.5922C21.8851 22.2993 22.3599 22.2993 22.6528 22.5922L25.8328 25.7722C26.1257 26.0651 26.1257 26.5399 25.8328 26.8328C25.5399 27.1257 25.0651 27.1257 24.7722 26.8328L21.5922 23.6528C21.2993 23.3599 21.2993 22.8851 21.5922 22.5922Z" fill="white"/>
    <path fill-rule="evenodd" clip-rule="evenodd" d="M18.4078 22.5922C18.7007 22.8851 18.7007 23.3599 18.4078 23.6528L15.2278 26.8328C14.9349 27.1257 14.4601 27.1257 14.1672 26.8328C13.8743 26.5399 13.8743 26.0651 14.1672 25.7722L17.3472 22.5922C17.6401 22.2993 18.1149 22.2993 18.4078 22.5922Z" fill="white"/>
    <path fill-rule="evenodd" clip-rule="evenodd" d="M20 18.75C18.7574 18.75 17.75 19.7574 17.75 21C17.75 22.2426 18.7574 23.25 20 23.25C21.2426 23.25 22.25 22.2426 22.25 21C22.25 19.7574 21.2426 18.75 20 18.75ZM16.25 21C16.25 18.9289 17.9289 17.25 20 17.25C22.0711 17.25 23.75 18.9289 23.75 21C23.75 23.0711 22.0711 24.75 20 24.75C17.9289 24.75 16.25 23.0711 16.25 21Z" fill="white"/>
    </g>
    <defs>
    <clipPath id="clip0_1125_3058">
    <rect width="18" height="18" fill="white" transform="translate(11 12)"/>
    </clipPath>
    </defs>
</svg>
