<svg width="40" height="40" viewBox="0 0 40 40" fill="none" xmlns="http://www.w3.org/2000/svg">
<path d="M20.6836 39.3596C20.2991 39.7199 19.7009 39.7199 19.3164 39.3596L10.9693 31.5409C4.9147 25.8695 4.61347 16.3604 10.297 10.3171L10.5301 10.0693C15.6636 4.61091 24.3364 4.6109 29.4699 10.0693L29.703 10.3171C35.3865 16.3604 35.0853 25.8695 29.0307 31.5409L20.6836 39.3596Z" fill="#B94E18"/>
<path fill-rule="evenodd" clip-rule="evenodd" d="M13.401 16.5988C13.5427 16.4316 13.7645 16.3333 14 16.3333H26C26.2355 16.3333 26.4574 16.4316 26.5991 16.5988C26.7408 16.766 26.7859 16.9827 26.7209 17.1839L25.4001 21.2735C25.3955 21.3025 25.3887 21.3314 25.3797 21.36C25.2915 21.6394 25.1032 21.8856 24.8433 22.0613C24.5834 22.237 24.2661 22.3325 23.9397 22.3333L23.9375 22.3333H16.0528C15.7289 22.3296 15.4151 22.2327 15.1582 22.0573C14.9021 21.8823 14.7163 21.6385 14.6286 21.3623L13.2791 17.1839C13.2141 16.9827 13.2593 16.766 13.401 16.5988ZM23.9279 21C23.9283 20.9986 23.9287 20.9973 23.9291 20.996L25.0044 17.6666H14.9956L16.0722 21H23.9279Z" fill="white"/>
<path fill-rule="evenodd" clip-rule="evenodd" d="M17 21C17.4142 21 17.75 21.2984 17.75 21.6666V27.6666C17.75 28.0348 17.4142 28.3333 17 28.3333C16.5858 28.3333 16.25 28.0348 16.25 27.6666V21.6666C16.25 21.2984 16.5858 21 17 21Z" fill="white"/>
<path fill-rule="evenodd" clip-rule="evenodd" d="M23 21C23.4142 21 23.75 21.2984 23.75 21.6666V27.6666C23.75 28.0348 23.4142 28.3333 23 28.3333C22.5858 28.3333 22.25 28.0348 22.25 27.6666V21.6666C22.25 21.2984 22.5858 21 23 21Z" fill="white"/>
<path fill-rule="evenodd" clip-rule="evenodd" d="M17.6439 16.34C18.054 16.2879 18.4339 16.5412 18.4925 16.9057L19.2425 21.5723C19.301 21.9368 19.0161 22.2745 18.6061 22.3266C18.196 22.3787 17.8161 22.1254 17.7575 21.7609L17.0075 17.0942C16.949 16.7298 17.2339 16.3921 17.6439 16.34Z" fill="white"/>
<path fill-rule="evenodd" clip-rule="evenodd" d="M22.3561 16.34C22.7661 16.3921 23.051 16.7298 22.9925 17.0942L22.2425 21.7609C22.1839 22.1254 21.804 22.3787 21.3939 22.3266C20.9839 22.2745 20.699 21.9368 20.7575 21.5723L21.5075 16.9057C21.5661 16.5412 21.946 16.2879 22.3561 16.34Z" fill="white"/>
<path fill-rule="evenodd" clip-rule="evenodd" d="M20 13.6666C20.4142 13.6666 20.75 13.9651 20.75 14.3333V17C20.75 17.3681 20.4142 17.6666 20 17.6666C19.5858 17.6666 19.25 17.3681 19.25 17V14.3333C19.25 13.9651 19.5858 13.6666 20 13.6666Z" fill="white"/>
<path fill-rule="evenodd" clip-rule="evenodd" d="M18.5 14.3333C18.5 13.9651 18.8358 13.6666 19.25 13.6666H20.75C21.1642 13.6666 21.5 13.9651 21.5 14.3333C21.5 14.7015 21.1642 15 20.75 15H19.25C18.8358 15 18.5 14.7015 18.5 14.3333Z" fill="white"/>
</svg>
