<svg width="40" height="40" viewBox="0 0 40 40" fill="none" xmlns="http://www.w3.org/2000/svg">
<path d="M20.6836 39.3596C20.2991 39.7199 19.7009 39.7199 19.3164 39.3596L10.9693 31.5409C4.9147 25.8695 4.61347 16.3604 10.297 10.3171L10.5301 10.0693C15.6636 4.61091 24.3364 4.6109 29.4699 10.0693L29.703 10.3171C35.3865 16.3604 35.0853 25.8695 29.0307 31.5409L20.6836 39.3596Z" fill="#B94E18"/>
<path fill-rule="evenodd" clip-rule="evenodd" d="M13.25 19.25C13.25 18.8358 13.5858 18.5 14 18.5C15.9891 18.5 17.8968 19.2902 19.3033 20.6967C20.7098 22.1032 21.5 24.0109 21.5 26C21.5 26.4142 21.1642 26.75 20.75 26.75C20.3358 26.75 20 26.4142 20 26C20 24.4087 19.3679 22.8826 18.2426 21.7574C17.1174 20.6321 15.5913 20 14 20C13.5858 20 13.25 19.6642 13.25 19.25Z" fill="white"/>
<path fill-rule="evenodd" clip-rule="evenodd" d="M13.25 14C13.25 13.5858 13.5858 13.25 14 13.25C17.3815 13.25 20.6245 14.5933 23.0156 16.9844C25.4067 19.3755 26.75 22.6185 26.75 26C26.75 26.4142 26.4142 26.75 26 26.75C25.5858 26.75 25.25 26.4142 25.25 26C25.25 23.0163 24.0647 20.1548 21.955 18.045C19.8452 15.9353 16.9837 14.75 14 14.75C13.5858 14.75 13.25 14.4142 13.25 14Z" fill="white"/>
<path fill-rule="evenodd" clip-rule="evenodd" d="M13.25 25.25C13.25 24.4216 13.9216 23.75 14.75 23.75C15.5784 23.75 16.25 24.4216 16.25 25.25C16.25 26.0784 15.5784 26.75 14.75 26.75C13.9216 26.75 13.25 26.0784 13.25 25.25Z" fill="white"/>
</svg>
