<svg width="16" height="16" viewBox="0 0 16 16" fill="none" xmlns="http://www.w3.org/2000/svg">
<path fill-rule="evenodd" clip-rule="evenodd" d="M7.33333 14C6.96514 14 6.66667 13.7015 6.66667 13.3333C6.66667 11.5652 7.36905 9.86953 8.61929 8.61929C9.86953 7.36905 11.5652 6.66667 13.3333 6.66667C13.7015 6.66667 14 6.96514 14 7.33333C14 7.70152 13.7015 8 13.3333 8C11.9188 8 10.5623 8.5619 9.5621 9.5621C8.5619 10.5623 8 11.9188 8 13.3333C8 13.7015 7.70152 14 7.33333 14Z" fill="white"/>
<path fill-rule="evenodd" clip-rule="evenodd" d="M2.66667 14C2.29848 14 2 13.7015 2 13.3333C2 10.3275 3.19404 7.44487 5.31946 5.31946C7.44487 3.19404 10.3275 2 13.3333 2C13.7015 2 14 2.29848 14 2.66667C14 3.03486 13.7015 3.33333 13.3333 3.33333C10.6812 3.33333 8.13763 4.3869 6.26227 6.26227C4.3869 8.13763 3.33333 10.6812 3.33333 13.3333C3.33333 13.7015 3.03486 14 2.66667 14Z" fill="white"/>
<path fill-rule="evenodd" clip-rule="evenodd" d="M12.6667 14C11.9303 14 11.3333 13.403 11.3333 12.6667C11.3333 11.9303 11.9303 11.3333 12.6667 11.3333C13.403 11.3333 14 11.9303 14 12.6667C14 13.403 13.403 14 12.6667 14Z" fill="white"/>
</svg>
