<svg width="16" height="16" viewBox="0 0 25 24" fill="none" xmlns="http://www.w3.org/2000/svg">
<g clip-path="url(#clip0_1064_11194)">
<path d="M22.1144 1.11987H18.9037C17.5883 1.11987 16.5181 2.19008 16.5181 3.50548C16.5181 4.41612 17.0312 5.20892 17.7832 5.61083V14.8626C17.7832 16.2395 16.6631 17.3596 15.2863 17.3596C14.2081 17.3596 13.2679 16.6632 12.9269 15.6764C13.4888 15.2396 13.8514 14.5579 13.8514 13.7926C13.8514 12.9295 13.3907 12.172 12.7023 11.753C12.4697 10.3583 11.7764 9.07892 10.7208 8.11245C9.54547 7.03644 8.02213 6.44384 6.43138 6.44384H4.94914C4.5357 5.73265 3.76583 5.25317 2.8857 5.25317C1.5702 5.25317 0.5 6.32337 0.5 7.63883V10.8495C0.5 12.1649 1.5702 13.2351 2.88561 13.2351C3.79855 13.2351 4.59294 12.7194 4.99386 11.9643H6.43128C6.55869 11.9643 6.68131 11.9939 6.7918 12.047C6.32356 12.4828 6.02989 13.1039 6.02989 13.7926C6.02989 14.721 6.56328 15.5266 7.33939 15.9207C7.86191 19.8622 11.258 22.88 15.2862 22.88C19.7069 22.88 23.3036 19.2835 23.3036 14.8626V5.5723C24.0179 5.15965 24.5 4.38809 24.5 3.50553C24.5 2.19003 23.4298 1.11987 22.1144 1.11987ZM3.71061 10.8495C3.71066 11.3013 3.34311 11.6744 2.88566 11.6744C2.43078 11.6744 2.0607 11.3044 2.0607 10.8495V7.63883C2.0607 7.18395 2.43078 6.81387 2.88566 6.81387C3.34208 6.81387 3.71061 7.18634 3.71061 7.63883V10.8495ZM6.43128 10.4037H5.27131V8.0045H6.43128C8.55373 8.0045 10.4129 9.43855 11.0196 11.4069H8.4155C8.40406 11.4069 8.39263 11.407 8.38109 11.4072C7.9377 10.7893 7.21503 10.4037 6.43128 10.4037ZM7.59055 13.7926C7.59055 13.3351 7.96395 12.9676 8.41555 12.9676H11.4657C11.9075 12.9676 12.2906 13.3268 12.2906 13.7926C12.2906 14.2545 11.9109 14.6175 11.4657 14.6175H8.41555C7.96531 14.6176 7.59055 14.251 7.59055 13.7926ZM21.743 14.8626C21.743 18.4229 18.8465 21.3194 15.2862 21.3194C12.2016 21.3194 9.57697 19.1225 8.96464 16.1782H11.4485C12.0009 17.7858 13.5316 18.9202 15.2862 18.9202C17.5235 18.9202 19.3438 17.1 19.3438 14.8626V5.89119H21.743V14.8626ZM22.1143 4.33048H18.9036C18.453 4.33048 18.0787 3.96383 18.0787 3.50553C18.0787 3.05065 18.4488 2.68058 18.9036 2.68058H22.1143C22.5692 2.68058 22.9393 3.05065 22.9393 3.50553C22.9393 3.96205 22.5669 4.33048 22.1143 4.33048Z" fill="#1F1F25"/>
</g>
<defs>
<clipPath id="clip0_1064_11194">
<rect width="25" height="24" fill="white" transform="translate(0.5)"/>
</clipPath>
</defs>
</svg>
