<svg width="40" height="40" viewBox="0 0 40 40" fill="none" xmlns="http://www.w3.org/2000/svg">
<path d="M20.6836 39.3596C20.2991 39.7199 19.7009 39.7199 19.3164 39.3596L10.9693 31.5409C4.9147 25.8695 4.61347 16.3604 10.297 10.3171L10.5301 10.0693C15.6636 4.61091 24.3364 4.6109 29.4699 10.0693L29.703 10.3171C35.3865 16.3604 35.0853 25.8695 29.0307 31.5409L20.6836 39.3596Z" fill="#B94E18"/>
<g clip-path="url(#clip0_1125_3068)">
<path fill-rule="evenodd" clip-rule="evenodd" d="M11.75 20C11.75 19.5858 12.0858 19.25 12.5 19.25H27.5C27.9142 19.25 28.25 19.5858 28.25 20C28.25 20.4142 27.9142 20.75 27.5 20.75H12.5C12.0858 20.75 11.75 20.4142 11.75 20Z" fill="white"/>
<path fill-rule="evenodd" clip-rule="evenodd" d="M20 11.75C20.4142 11.75 20.75 12.0858 20.75 12.5V27.5C20.75 27.9142 20.4142 28.25 20 28.25C19.5858 28.25 19.25 27.9142 19.25 27.5V12.5C19.25 12.0858 19.5858 11.75 20 11.75Z" fill="white"/>
<path fill-rule="evenodd" clip-rule="evenodd" d="M26.5303 16.4697C26.8232 16.7626 26.8232 17.2374 26.5303 17.5303L24.0607 20L26.5303 22.4697C26.8232 22.7626 26.8232 23.2374 26.5303 23.5303C26.2374 23.8232 25.7626 23.8232 25.4697 23.5303L22.4697 20.5303C22.1768 20.2374 22.1768 19.7626 22.4697 19.4697L25.4697 16.4697C25.7626 16.1768 26.2374 16.1768 26.5303 16.4697Z" fill="white"/>
<path fill-rule="evenodd" clip-rule="evenodd" d="M13.4697 16.4697C13.7626 16.1768 14.2374 16.1768 14.5303 16.4697L17.5303 19.4697C17.8232 19.7626 17.8232 20.2374 17.5303 20.5303L14.5303 23.5303C14.2374 23.8232 13.7626 23.8232 13.4697 23.5303C13.1768 23.2374 13.1768 22.7626 13.4697 22.4697L15.9393 20L13.4697 17.5303C13.1768 17.2374 13.1768 16.7626 13.4697 16.4697Z" fill="white"/>
<path fill-rule="evenodd" clip-rule="evenodd" d="M16.4697 13.4697C16.7626 13.1768 17.2374 13.1768 17.5303 13.4697L20 15.9393L22.4697 13.4697C22.7626 13.1768 23.2374 13.1768 23.5303 13.4697C23.8232 13.7626 23.8232 14.2374 23.5303 14.5303L20.5303 17.5303C20.2374 17.8232 19.7626 17.8232 19.4697 17.5303L16.4697 14.5303C16.1768 14.2374 16.1768 13.7626 16.4697 13.4697Z" fill="white"/>
<path fill-rule="evenodd" clip-rule="evenodd" d="M19.4697 22.4697C19.7626 22.1768 20.2374 22.1768 20.5303 22.4697L23.5303 25.4697C23.8232 25.7626 23.8232 26.2374 23.5303 26.5303C23.2374 26.8232 22.7626 26.8232 22.4697 26.5303L20 24.0607L17.5303 26.5303C17.2374 26.8232 16.7626 26.8232 16.4697 26.5303C16.1768 26.2374 16.1768 25.7626 16.4697 25.4697L19.4697 22.4697Z" fill="white"/>
</g>
<defs>
<clipPath id="clip0_1125_3068">
<rect width="18" height="18" fill="white" transform="translate(11 11)"/>
</clipPath>
</defs>
</svg>
