<svg width="40" height="40" viewBox="0 0 40 40" fill="none" xmlns="http://www.w3.org/2000/svg">
    <path d="M20.6836 39.3596C20.2991 39.7199 19.7009 39.7199 19.3164 39.3596L10.9693 31.5409C4.9147 25.8695 4.61347 16.3604 10.297 10.3171L10.5301 10.0693C15.6636 4.61091 24.3364 4.6109 29.4699 10.0693L29.703 10.3171C35.3865 16.3604 35.0853 25.8695 29.0307 31.5409L20.6836 39.3596Z" fill="#B94E18"/>
    <path fill-rule="evenodd" clip-rule="evenodd" d="M20 13.25C19.8011 13.25 19.6103 13.329 19.4697 13.4697C19.329 13.6103 19.25 13.8011 19.25 14V21.905C19.25 22.1729 19.1071 22.4205 18.875 22.5545C18.4461 22.8022 18.1108 23.1844 17.9213 23.642C17.7317 24.0996 17.6985 24.607 17.8267 25.0854C17.9549 25.5638 18.2373 25.9866 18.6303 26.2881C19.0232 26.5896 19.5047 26.7531 20 26.7531C20.4953 26.7531 20.9768 26.5896 21.3697 26.2881C21.7627 25.9866 22.0451 25.5638 22.1733 25.0854C22.3015 24.607 22.2683 24.0996 22.0787 23.642C21.8892 23.1844 21.5539 22.8022 21.125 22.5545C20.893 22.4205 20.75 22.1729 20.75 21.905V14C20.75 13.8011 20.671 13.6103 20.5303 13.4697C20.3897 13.329 20.1989 13.25 20 13.25ZM18.409 12.409C18.831 11.9871 19.4033 11.75 20 11.75C20.5967 11.75 21.169 11.9871 21.591 12.409C22.0129 12.831 22.25 13.4033 22.25 14V21.5031C22.7856 21.9048 23.2063 22.4444 23.4646 23.068C23.7805 23.8307 23.8359 24.6763 23.6222 25.4736C23.4086 26.271 22.9378 26.9756 22.2829 27.4782C21.6279 27.9807 20.8255 28.2531 20 28.2531C19.1745 28.2531 18.3721 27.9807 17.7171 27.4782C17.0622 26.9756 16.5914 26.271 16.3778 25.4736C16.1641 24.6763 16.2195 23.8307 16.5355 23.068C16.7938 22.4444 17.2144 21.9048 17.75 21.5031V14C17.75 13.4033 17.9871 12.831 18.409 12.409Z" fill="white"/>
</svg>
