<svg width="16" height="16" viewBox="0 0 16 16" fill="none" xmlns="http://www.w3.org/2000/svg">
<path fill-rule="evenodd" clip-rule="evenodd" d="M8.00002 1.99996C7.82321 1.99996 7.65364 2.0702 7.52862 2.19522C7.40359 2.32025 7.33336 2.48982 7.33336 2.66663V9.69329C7.33336 9.93147 7.20629 10.1516 7.00002 10.2706C6.61874 10.4908 6.32075 10.8306 6.15226 11.2373C5.98378 11.6441 5.95422 12.0951 6.06817 12.5203C6.18212 12.9456 6.43321 13.3214 6.7825 13.5894C7.13179 13.8574 7.55975 14.0027 8.00002 14.0027C8.44029 14.0027 8.86826 13.8574 9.21754 13.5894C9.56683 13.3214 9.81792 12.9456 9.93187 12.5203C10.0458 12.0951 10.0163 11.6441 9.84778 11.2373C9.6793 10.8306 9.38131 10.4908 9.00002 10.2706C8.79375 10.1516 8.66669 9.93147 8.66669 9.69329V2.66663C8.66669 2.48982 8.59645 2.32025 8.47143 2.19522C8.3464 2.0702 8.17683 1.99996 8.00002 1.99996ZM6.58581 1.25241C6.96088 0.87734 7.46959 0.666626 8.00002 0.666626C8.53046 0.666626 9.03916 0.87734 9.41424 1.25241C9.78931 1.62748 10 2.13619 10 2.66663V9.33602C10.4761 9.69309 10.85 10.1728 11.0796 10.7271C11.3604 11.405 11.4097 12.1566 11.2198 12.8654C11.0299 13.5742 10.6114 14.2005 10.0292 14.6472C9.44708 15.0939 8.7338 15.336 8.00002 15.336C7.26624 15.336 6.55297 15.0939 5.97082 14.6472C5.38867 14.2005 4.97019 13.5742 4.78027 12.8654C4.59035 12.1566 4.63962 11.405 4.92042 10.7271C5.15002 10.1728 5.52392 9.69309 6.00002 9.33602V2.66663C6.00002 2.13619 6.21074 1.62748 6.58581 1.25241Z" fill="white"/>
</svg>
