<svg width="40" height="40" viewBox="0 0 40 40" fill="none" xmlns="http://www.w3.org/2000/svg">
<path d="M20.6836 39.3596C20.2991 39.7199 19.7009 39.7199 19.3164 39.3596L10.9693 31.5409C4.9147 25.8695 4.61347 16.3604 10.297 10.3171L10.5301 10.0693C15.6636 4.61091 24.3364 4.6109 29.4699 10.0693L29.703 10.3171C35.3865 16.3604 35.0853 25.8695 29.0307 31.5409L20.6836 39.3596Z" fill="#B94E18"/>
<path fill-rule="evenodd" clip-rule="evenodd" d="M20.0084 13.9298L17.6044 17.7501H22.3881L20.0084 13.9298ZM19.9632 12.2308C20.1828 12.2229 20.4006 12.2719 20.5956 12.373C20.7907 12.474 20.9563 12.6238 21.0764 12.8077L21.0851 12.8213L23.8537 17.2658C23.9786 17.4524 24.0521 17.6688 24.0665 17.8931C24.0815 18.1252 24.0327 18.357 23.9254 18.5633C23.8181 18.7697 23.6564 18.9428 23.4578 19.0638C23.2592 19.1849 23.0312 19.2493 22.7986 19.2501L22.796 19.2501H17.241C17.0146 19.258 16.79 19.2055 16.5904 19.0977C16.3835 18.9859 16.2116 18.8191 16.0936 18.6157C15.9756 18.4123 15.9161 18.1802 15.9218 17.9452C15.9274 17.7119 15.9969 17.4848 16.1226 17.2884L18.9067 12.8642C19.0127 12.6818 19.1625 12.5284 19.3427 12.4179C19.53 12.3031 19.7437 12.2387 19.9632 12.2308Z" fill="white"/>
<path fill-rule="evenodd" clip-rule="evenodd" d="M12.5 22.2501C12.5 21.4216 13.1716 20.7501 14 20.7501H17.75C18.5784 20.7501 19.25 21.4216 19.25 22.2501V26.0001C19.25 26.8285 18.5784 27.5001 17.75 27.5001H14C13.1716 27.5001 12.5 26.8285 12.5 26.0001V22.2501ZM17.75 22.2501H14V26.0001H17.75V22.2501Z" fill="white"/>
<path fill-rule="evenodd" clip-rule="evenodd" d="M24.125 22.2501C23.0895 22.2501 22.25 23.0895 22.25 24.1251C22.25 25.1606 23.0895 26.0001 24.125 26.0001C25.1605 26.0001 26 25.1606 26 24.1251C26 23.0895 25.1605 22.2501 24.125 22.2501ZM20.75 24.1251C20.75 22.2611 22.261 20.7501 24.125 20.7501C25.989 20.7501 27.5 22.2611 27.5 24.1251C27.5 25.989 25.989 27.5001 24.125 27.5001C22.261 27.5001 20.75 25.989 20.75 24.1251Z" fill="white"/>
</svg>
