<svg width="40" height="40" viewBox="0 0 40 40" fill="none" xmlns="http://www.w3.org/2000/svg">
    <path d="M20.6836 39.3596C20.2991 39.7199 19.7009 39.7199 19.3164 39.3596L10.9693 31.5409C4.9147 25.8695 4.61347 16.3604 10.297 10.3171L10.5301 10.0693C15.6636 4.61091 24.3364 4.6109 29.4699 10.0693L29.703 10.3171C35.3865 16.3604 35.0853 25.8695 29.0307 31.5409L20.6836 39.3596Z" fill="#D62E2E"/>
    <path fill-rule="evenodd" clip-rule="evenodd" d="M12.5 17C12.5 16.6318 12.8358 16.3333 13.25 16.3333H26.75C27.1642 16.3333 27.5 16.6318 27.5 17C27.5 17.3681 27.1642 17.6666 26.75 17.6666H13.25C12.8358 17.6666 12.5 17.3681 12.5 17Z" fill="white"/>
    <path fill-rule="evenodd" clip-rule="evenodd" d="M14.75 16.3333C15.1642 16.3333 15.5 16.6318 15.5 17V26.3333C15.5 26.4498 15.5731 26.6221 15.7491 26.7786C15.9251 26.935 16.1189 27 16.25 27H23.75C23.8811 27 24.0749 26.935 24.2509 26.7786C24.4269 26.6221 24.5 26.4498 24.5 26.3333V17C24.5 16.6318 24.8358 16.3333 25.25 16.3333C25.6642 16.3333 26 16.6318 26 17V26.3333C26 26.8834 25.6981 27.3778 25.3116 27.7214C24.9251 28.0649 24.3689 28.3333 23.75 28.3333H16.25C15.6311 28.3333 15.0749 28.0649 14.6884 27.7214C14.3019 27.3778 14 26.8834 14 26.3333V17C14 16.6318 14.3358 16.3333 14.75 16.3333Z" fill="white"/>
    <path fill-rule="evenodd" clip-rule="evenodd" d="M17.9991 15.2214C17.8231 15.3778 17.75 15.5501 17.75 15.6666V17C17.75 17.3681 17.4142 17.6666 17 17.6666C16.5858 17.6666 16.25 17.3681 16.25 17V15.6666C16.25 15.1165 16.5519 14.6221 16.9384 14.2786C17.3249 13.935 17.8811 13.6666 18.5 13.6666H21.5C22.1189 13.6666 22.6751 13.935 23.0616 14.2786C23.4481 14.6221 23.75 15.1165 23.75 15.6666V17C23.75 17.3681 23.4142 17.6666 23 17.6666C22.5858 17.6666 22.25 17.3681 22.25 17V15.6666C22.25 15.5501 22.1769 15.3778 22.0009 15.2214C21.8249 15.0649 21.6311 15 21.5 15H18.5C18.3689 15 18.1751 15.0649 17.9991 15.2214Z" fill="white"/>
</svg>