<svg width="16" height="16" viewBox="0 0 16 16" fill="none" xmlns="http://www.w3.org/2000/svg">
    <path fill-rule="evenodd" clip-rule="evenodd" d="M1.3335 4.00008C1.3335 3.63189 1.63197 3.33341 2.00016 3.33341H14.0002C14.3684 3.33341 14.6668 3.63189 14.6668 4.00008C14.6668 4.36827 14.3684 4.66675 14.0002 4.66675H2.00016C1.63197 4.66675 1.3335 4.36827 1.3335 4.00008Z" fill="#1F1F25"/>
    <path fill-rule="evenodd" clip-rule="evenodd" d="M3.3335 3.33341C3.70169 3.33341 4.00016 3.63189 4.00016 4.00008V13.3334C4.00016 13.4499 4.06513 13.6222 4.22157 13.7787C4.378 13.9351 4.55032 14.0001 4.66683 14.0001H11.3335C11.45 14.0001 11.6223 13.9351 11.7788 13.7787C11.9352 13.6222 12.0002 13.4499 12.0002 13.3334V4.00008C12.0002 3.63189 12.2986 3.33341 12.6668 3.33341C13.035 3.33341 13.3335 3.63189 13.3335 4.00008V13.3334C13.3335 13.8836 13.0651 14.3779 12.7216 14.7215C12.378 15.065 11.8837 15.3334 11.3335 15.3334H4.66683C4.11668 15.3334 3.62232 15.065 3.27876 14.7215C2.93519 14.3779 2.66683 13.8836 2.66683 13.3334V4.00008C2.66683 3.63189 2.96531 3.33341 3.3335 3.33341Z" fill="#1F1F25"/>
    <path fill-rule="evenodd" clip-rule="evenodd" d="M6.22157 2.22149C6.06513 2.37792 6.00016 2.55024 6.00016 2.66675V4.00008C6.00016 4.36827 5.70169 4.66675 5.3335 4.66675C4.96531 4.66675 4.66683 4.36827 4.66683 4.00008V2.66675C4.66683 2.11659 4.93519 1.62224 5.27876 1.27868C5.62232 0.935113 6.11668 0.666748 6.66683 0.666748H9.3335C9.88365 0.666748 10.378 0.935113 10.7216 1.27868C11.0651 1.62224 11.3335 2.11659 11.3335 2.66675V4.00008C11.3335 4.36827 11.035 4.66675 10.6668 4.66675C10.2986 4.66675 10.0002 4.36827 10.0002 4.00008V2.66675C10.0002 2.55024 9.93519 2.37792 9.77876 2.22149C9.62232 2.06505 9.45001 2.00008 9.3335 2.00008H6.66683C6.55032 2.00008 6.378 2.06505 6.22157 2.22149Z" fill="#1F1F25"/>
</svg>