<svg width="16" height="16" viewBox="0 0 16 16" fill="none" xmlns="http://www.w3.org/2000/svg">
<path fill-rule="evenodd" clip-rule="evenodd" d="M4.66665 2.86668C4.98443 2.86668 5.25804 3.09099 5.32037 3.4026C5.48193 4.21041 5.96876 4.99646 6.61473 5.52344C7.49379 6.24057 7.99998 7.15066 7.99998 8.16668C7.99998 10.0062 6.51008 11.5333 4.66665 11.5333C2.82321 11.5333 1.33331 10.0062 1.33331 8.16668C1.33331 7.16265 1.82807 6.23579 2.72352 5.51943C3.36829 5.00361 3.8505 4.21472 4.01293 3.4026C4.07525 3.09099 4.34886 2.86668 4.66665 2.86668ZM4.66872 5.29684C4.36972 5.77964 3.99155 6.21251 3.55644 6.56059C2.91855 7.0709 2.66665 7.63737 2.66665 8.16668C2.66665 9.28713 3.57675 10.2 4.66665 10.2C5.75654 10.2 6.66665 9.28713 6.66665 8.16668C6.66665 7.63603 6.41283 7.07946 5.7719 6.55659C5.34429 6.20776 4.96796 5.77733 4.66872 5.29684Z" fill="white"/>
<path fill-rule="evenodd" clip-rule="evenodd" d="M9.33606 1.34669C9.65281 1.34799 9.92491 1.572 9.98703 1.8826C10.2884 3.3892 11.2005 4.85336 12.4164 5.8261C13.8691 6.98823 14.6662 8.43212 14.6666 10.012C14.6707 11.065 14.3622 12.0956 13.7801 12.9732C13.1977 13.8512 12.3678 14.5365 11.3955 14.9423C10.4232 15.348 9.35229 15.4559 8.31859 15.2523C7.28489 15.0487 6.33492 14.5428 5.58911 13.7986C5.32846 13.5386 5.32799 13.1164 5.58805 12.8558C5.8481 12.5952 6.27021 12.5947 6.53085 12.8547C7.08975 13.4124 7.80163 13.7915 8.57626 13.9441C9.35089 14.0967 10.1534 14.0158 10.882 13.7118C11.6106 13.4077 12.2325 12.8942 12.6689 12.2362C13.1054 11.5783 13.3366 10.8056 13.3333 10.0161L13.3333 10.0133C13.3333 8.92707 12.7971 7.83813 11.5835 6.86726C10.6516 6.12174 9.86946 5.13885 9.33236 4.04698C9.21327 4.28868 9.08183 4.52457 8.93842 4.7537C8.74309 5.0658 8.33173 5.16046 8.01963 4.96512C7.70752 4.76979 7.61287 4.35843 7.8082 4.04632C8.22491 3.38052 8.52031 2.64613 8.68069 1.87722C8.74537 1.56714 9.01931 1.34538 9.33606 1.34669Z" fill="white"/>
</svg>
