<svg width="40" height="40" viewBox="0 0 40 40" fill="none" xmlns="http://www.w3.org/2000/svg">
<path d="M20.6836 39.3596C20.2991 39.7199 19.7009 39.7199 19.3164 39.3596L10.9693 31.5409C4.9147 25.8695 4.61347 16.3604 10.297 10.3171L10.5301 10.0693C15.6636 4.61091 24.3364 4.6109 29.4699 10.0693L29.703 10.3171C35.3865 16.3604 35.0853 25.8695 29.0307 31.5409L20.6836 39.3596Z" fill="#B94E18"/>
<path fill-rule="evenodd" clip-rule="evenodd" d="M16.25 14.225C16.6075 14.225 16.9153 14.4774 16.9854 14.8279C17.1672 15.7367 17.7149 16.621 18.4416 17.2139C19.4305 18.0206 20 19.0445 20 20.1875C20 22.257 18.3239 23.975 16.25 23.975C14.1761 23.975 12.5 22.257 12.5 20.1875C12.5 19.058 13.0566 18.0153 14.064 17.2094C14.7894 16.6291 15.3318 15.7416 15.5146 14.8279C15.5847 14.4774 15.8925 14.225 16.25 14.225ZM16.2523 16.9589C15.916 17.5021 15.4905 17.9891 15.001 18.3807C14.2834 18.9548 14 19.592 14 20.1875C14 21.448 15.0239 22.475 16.25 22.475C17.4761 22.475 18.5 21.448 18.5 20.1875C18.5 19.5905 18.2145 18.9644 17.4934 18.3762C17.0124 17.9837 16.589 17.4995 16.2523 16.9589Z" fill="white"/>
<path fill-rule="evenodd" clip-rule="evenodd" d="M21.5031 12.515C21.8594 12.5165 22.1655 12.7685 22.2354 13.1179C22.5744 14.8129 23.6006 16.46 24.9685 17.5544C26.6028 18.8618 27.4995 20.4861 27.5 22.2635C27.5046 23.4482 27.1575 24.6076 26.5026 25.5949C25.8474 26.5826 24.9138 27.3536 23.8199 27.81C22.7261 28.2665 21.5214 28.3879 20.3584 28.1588C19.1955 27.9298 18.1268 27.3606 17.2878 26.5234C16.9945 26.2309 16.994 25.756 17.2866 25.4628C17.5791 25.1696 18.054 25.169 18.3472 25.4616C18.976 26.0889 19.7769 26.5155 20.6483 26.6871C21.5198 26.8588 22.4226 26.7678 23.2423 26.4257C24.062 26.0837 24.7616 25.5059 25.2526 24.7658C25.7435 24.0256 26.0037 23.1563 26 22.2681L26 22.265C26 21.043 25.3968 19.8179 24.0315 18.7257C22.9831 17.887 22.1032 16.7812 21.4989 15.5528C21.365 15.8248 21.2171 16.0901 21.0557 16.3479C20.836 16.699 20.3732 16.8055 20.0221 16.5858C19.671 16.366 19.5645 15.9032 19.7843 15.5521C20.253 14.8031 20.5854 13.9769 20.7658 13.1119C20.8386 12.763 21.1467 12.5136 21.5031 12.515Z" fill="white"/>
</svg>
