<svg xmlns="http://www.w3.org/2000/svg" width="20" height="20" viewBox="0 0 20 20" fill="none">
<path fill-rule="evenodd" clip-rule="evenodd" d="M8.73303 1.99499C9.11513 1.77234 9.54945 1.65503 9.99169 1.65503C10.4339 1.65503 10.8682 1.77234 11.2503 1.99499C11.632 2.21735 11.9478 2.53685 12.1659 2.92094L12.1667 2.9224L18.83 14.5833L18.8309 14.5847C19.0496 14.9642 19.1649 15.3946 19.165 15.8326C19.1651 16.2713 19.0498 16.7022 18.8307 17.0822C18.6116 17.4621 18.2963 17.7778 17.9166 17.9974C17.537 18.217 17.1062 18.3328 16.6675 18.3333H3.33677C2.89743 18.3365 2.46497 18.2239 2.08297 18.0068C1.69979 17.789 1.381 17.4737 1.15891 17.093C0.936826 16.7123 0.819342 16.2796 0.818366 15.8389C0.817391 15.3988 0.932597 14.9663 1.15232 14.585L1.15335 14.5832L7.81669 2.9224L7.81752 2.92094C8.03553 2.53685 8.35142 2.21735 8.73303 1.99499ZM9.99169 3.3217C9.84428 3.3217 9.6995 3.3608 9.57214 3.43501C9.44477 3.50923 9.33937 3.6159 9.26669 3.74415L9.26523 3.74673L2.5967 15.4166C2.52323 15.5439 2.4847 15.6883 2.48503 15.8352C2.48535 15.9821 2.52452 16.1263 2.59854 16.2532C2.67257 16.3801 2.77883 16.4852 2.90656 16.5578C3.03429 16.6304 3.17895 16.668 3.32586 16.6666L3.33336 16.6666L16.6658 16.6666C16.812 16.6665 16.9556 16.6278 17.0822 16.5546C17.2088 16.4814 17.3138 16.3762 17.3869 16.2496C17.4599 16.1229 17.4984 15.9793 17.4983 15.8331C17.4983 15.6869 17.4598 15.5432 17.3867 15.4166L17.3848 15.4134L10.7182 3.74673L10.7167 3.74415C10.644 3.6159 10.5386 3.50923 10.4112 3.43501C10.2839 3.3608 10.1391 3.3217 9.99169 3.3217Z" fill="#1F1F25"/>
<path fill-rule="evenodd" clip-rule="evenodd" d="M10 6.66661C10.4603 6.66661 10.8334 7.03971 10.8334 7.49994V10.8333C10.8334 11.2935 10.4603 11.6666 10 11.6666C9.53979 11.6666 9.16669 11.2935 9.16669 10.8333V7.49994C9.16669 7.03971 9.53979 6.66661 10 6.66661Z" fill="#1F1F25"/>
<path fill-rule="evenodd" clip-rule="evenodd" d="M9.16669 14.1666C9.16669 13.7064 9.53979 13.3333 10 13.3333H10.0084C10.4686 13.3333 10.8417 13.7064 10.8417 14.1666C10.8417 14.6268 10.4686 14.9999 10.0084 14.9999H10C9.53979 14.9999 9.16669 14.6268 9.16669 14.1666Z" fill="#1F1F25"/>
</svg>