<svg xmlns="http://www.w3.org/2000/svg" width="24" height="24" viewBox="0 0 24 24" fill="none">
<path fill-rule="evenodd" clip-rule="evenodd" d="M4.00024 12C4.00024 11.4477 4.44796 11 5.00024 11H19.0002C19.5525 11 20.0002 11.4477 20.0002 12C20.0002 12.5523 19.5525 13 19.0002 13H5.00024C4.44796 13 4.00024 12.5523 4.00024 12Z" fill="#1F1F25"/>
<path fill-rule="evenodd" clip-rule="evenodd" d="M11.2931 4.29289C11.6837 3.90237 12.3168 3.90237 12.7074 4.29289L19.7074 11.2929C20.0979 11.6834 20.0979 12.3166 19.7074 12.7071L12.7074 19.7071C12.3168 20.0976 11.6837 20.0976 11.2931 19.7071C10.9026 19.3166 10.9026 18.6834 11.2931 18.2929L17.586 12L11.2931 5.70711C10.9026 5.31658 10.9026 4.68342 11.2931 4.29289Z" fill="#1F1F25"/>
</svg>