<svg xmlns="http://www.w3.org/2000/svg" width="20" height="20" viewBox="0 0 20 20" fill="none">
<g clip-path="url(#clip0_384_1287)">
<path fill-rule="evenodd" clip-rule="evenodd" d="M4.69662 4.69662C6.10314 3.29009 8.01079 2.49992 9.99992 2.49992C11.989 2.49992 13.8967 3.29009 15.3032 4.69662C16.7097 6.10314 17.4999 8.01079 17.4999 9.99992C17.4999 11.989 16.7097 13.8967 15.3032 15.3032C13.8967 16.7097 11.989 17.4999 9.99992 17.4999C8.01079 17.4999 6.10314 16.7097 4.69662 15.3032C3.29009 13.8967 2.49992 11.989 2.49992 9.99992C2.49992 8.01079 3.29009 6.10314 4.69662 4.69662ZM9.99992 4.16658C8.45282 4.16658 6.96909 4.78117 5.87513 5.87513C4.78117 6.96909 4.16658 8.45282 4.16658 9.99992C4.16658 11.547 4.78117 13.0307 5.87513 14.1247C6.96909 15.2187 8.45282 15.8333 9.99992 15.8333C11.547 15.8333 13.0307 15.2187 14.1247 14.1247C15.2187 13.0307 15.8333 11.547 15.8333 9.99992C15.8333 8.45282 15.2187 6.96909 14.1247 5.87513C13.0307 4.78117 11.547 4.16658 9.99992 4.16658Z" fill="#1F1F25"/>
<path fill-rule="evenodd" clip-rule="evenodd" d="M8.23215 8.23215C8.70099 7.76331 9.33688 7.49992 9.99992 7.49992C10.663 7.49992 11.2988 7.76331 11.7677 8.23215C12.2365 8.70099 12.4999 9.33688 12.4999 9.99992C12.4999 10.663 12.2365 11.2988 11.7677 11.7677C11.2988 12.2365 10.663 12.4999 9.99992 12.4999C9.33688 12.4999 8.70099 12.2365 8.23215 11.7677C7.76331 11.2988 7.49992 10.663 7.49992 9.99992C7.49992 9.33688 7.76331 8.70099 8.23215 8.23215ZM9.99992 9.16658C9.7789 9.16658 9.56694 9.25438 9.41066 9.41066C9.25438 9.56694 9.16658 9.7789 9.16658 9.99992C9.16658 10.2209 9.25438 10.4329 9.41066 10.5892C9.56694 10.7455 9.7789 10.8333 9.99992 10.8333C10.2209 10.8333 10.4329 10.7455 10.5892 10.5892C10.7455 10.4329 10.8333 10.2209 10.8333 9.99992C10.8333 9.7789 10.7455 9.56694 10.5892 9.41066C10.4329 9.25438 10.2209 9.16658 9.99992 9.16658Z" fill="#1F1F25"/>
<path fill-rule="evenodd" clip-rule="evenodd" d="M9.99992 0.833252C10.4602 0.833252 10.8333 1.20635 10.8333 1.66659V3.33325C10.8333 3.79349 10.4602 4.16658 9.99992 4.16658C9.53968 4.16658 9.16658 3.79349 9.16658 3.33325V1.66659C9.16658 1.20635 9.53968 0.833252 9.99992 0.833252Z" fill="#1F1F25"/>
<path fill-rule="evenodd" clip-rule="evenodd" d="M9.99992 15.8333C10.4602 15.8333 10.8333 16.2063 10.8333 16.6666V18.3333C10.8333 18.7935 10.4602 19.1666 9.99992 19.1666C9.53968 19.1666 9.16658 18.7935 9.16658 18.3333V16.6666C9.16658 16.2063 9.53968 15.8333 9.99992 15.8333Z" fill="#1F1F25"/>
<path fill-rule="evenodd" clip-rule="evenodd" d="M12.9162 15.0534C13.3147 14.8231 13.8244 14.9594 14.0547 15.3579L14.8881 16.7995C15.1184 17.198 14.9821 17.7077 14.5836 17.9381C14.1852 18.1684 13.6754 18.0321 13.4451 17.6336L12.6118 16.192C12.3815 15.7935 12.5178 15.2838 12.9162 15.0534Z" fill="#1F1F25"/>
<path fill-rule="evenodd" clip-rule="evenodd" d="M5.41667 2.06152C5.81527 1.83144 6.32491 1.96806 6.55499 2.36667L9.88832 8.14167C10.1184 8.54027 9.98177 9.04991 9.58317 9.27999C9.18457 9.51006 8.67492 9.37344 8.44485 8.97484L5.11152 3.19984C4.88144 2.80123 5.01806 2.29159 5.41667 2.06152Z" fill="#1F1F25"/>
<path fill-rule="evenodd" clip-rule="evenodd" d="M15.0534 12.9162C15.2838 12.5178 15.7935 12.3815 16.192 12.6118L17.6336 13.4451C18.0321 13.6754 18.1684 14.1852 17.9381 14.5836C17.7077 14.9821 17.198 15.1184 16.7995 14.8881L15.3579 14.0547C14.9594 13.8244 14.8231 13.3147 15.0534 12.9162Z" fill="#1F1F25"/>
<path fill-rule="evenodd" clip-rule="evenodd" d="M2.06178 5.41621C2.2921 5.01776 2.80183 4.88145 3.20029 5.11178L4.64195 5.94511C5.04041 6.17543 5.17672 6.68516 4.94639 7.08362C4.71607 7.48208 4.20634 7.61838 3.80788 7.38806L2.36621 6.55473C1.96776 6.3244 1.83145 5.81467 2.06178 5.41621Z" fill="#1F1F25"/>
<path fill-rule="evenodd" clip-rule="evenodd" d="M10.8333 9.99992C10.8333 9.53968 11.2063 9.16658 11.6666 9.16658H18.3333C18.7935 9.16658 19.1666 9.53968 19.1666 9.99992C19.1666 10.4602 18.7935 10.8333 18.3333 10.8333H11.6666C11.2063 10.8333 10.8333 10.4602 10.8333 9.99992Z" fill="#1F1F25"/>
<path fill-rule="evenodd" clip-rule="evenodd" d="M0.833252 9.99992C0.833252 9.53968 1.20635 9.16658 1.66659 9.16658H3.33325C3.79349 9.16658 4.16658 9.53968 4.16658 9.99992C4.16658 10.4602 3.79349 10.8333 3.33325 10.8333H1.66659C1.20635 10.8333 0.833252 10.4602 0.833252 9.99992Z" fill="#1F1F25"/>
<path fill-rule="evenodd" clip-rule="evenodd" d="M17.9381 5.41621C18.1684 5.81467 18.0321 6.3244 17.6336 6.55473L16.192 7.38806C15.7935 7.61838 15.2838 7.48208 15.0534 7.08362C14.8231 6.68516 14.9594 6.17543 15.3579 5.94511L16.7995 5.11178C17.198 4.88145 17.7077 5.01776 17.9381 5.41621Z" fill="#1F1F25"/>
<path fill-rule="evenodd" clip-rule="evenodd" d="M4.94639 12.9162C5.17672 13.3147 5.04041 13.8244 4.64195 14.0547L3.20029 14.8881C2.80183 15.1184 2.2921 14.9821 2.06178 14.5836C1.83145 14.1852 1.96776 13.6754 2.36621 13.4451L3.80788 12.6118C4.20634 12.3815 4.71607 12.5178 4.94639 12.9162Z" fill="#1F1F25"/>
<path fill-rule="evenodd" clip-rule="evenodd" d="M14.5836 2.06178C14.9821 2.2921 15.1184 2.80183 14.8881 3.20029L14.0547 4.64195C13.8244 5.04041 13.3147 5.17672 12.9162 4.94639C12.5178 4.71607 12.3815 4.20634 12.6118 3.80788L13.4451 2.36621C13.6754 1.96776 14.1852 1.83145 14.5836 2.06178Z" fill="#1F1F25"/>
<path fill-rule="evenodd" clip-rule="evenodd" d="M9.58317 10.7198C9.98177 10.9499 10.1184 11.4596 9.88832 11.8582L6.55499 17.6332C6.32491 18.0318 5.81527 18.1684 5.41667 17.9383C5.01806 17.7082 4.88144 17.1986 5.11152 16.8L8.44485 11.025C8.67492 10.6264 9.18457 10.4898 9.58317 10.7198Z" fill="#1F1F25"/>
</g>
<defs>
<clipPath id="clip0_384_1287">
<rect width="20" height="20" fill="white"/>
</clipPath>
</defs>
</svg>