<svg xmlns="http://www.w3.org/2000/svg" width="20" height="20" viewBox="0 0 20 20" fill="none">
<path fill-rule="evenodd" clip-rule="evenodd" d="M9.48846 1.00879C9.78939 0.774739 10.2108 0.774739 10.5117 1.00879L18.0117 6.84212C18.2147 7 18.3334 7.24276 18.3334 7.49992V16.6666C18.3334 17.3296 18.07 17.9655 17.6012 18.4344C17.1323 18.9032 16.4965 19.1666 15.8334 19.1666H4.16675C3.50371 19.1666 2.86782 18.9032 2.39898 18.4344C1.93014 17.9655 1.66675 17.3296 1.66675 16.6666V7.49992C1.66675 7.24276 1.78548 7 1.98846 6.84212L9.48846 1.00879ZM3.33341 7.90749V16.6666C3.33341 16.8876 3.42121 17.0996 3.57749 17.2558C3.73377 17.4121 3.94573 17.4999 4.16675 17.4999H15.8334C16.0544 17.4999 16.2664 17.4121 16.4227 17.2558C16.579 17.0996 16.6667 16.8876 16.6667 16.6666V7.90749L10.0001 2.7223L3.33341 7.90749Z" fill="white"/>
<path fill-rule="evenodd" clip-rule="evenodd" d="M6.66675 9.99992C6.66675 9.53968 7.03984 9.16658 7.50008 9.16658H12.5001C12.9603 9.16658 13.3334 9.53968 13.3334 9.99992V18.3333C13.3334 18.7935 12.9603 19.1666 12.5001 19.1666C12.0398 19.1666 11.6667 18.7935 11.6667 18.3333V10.8333H8.33342V18.3333C8.33342 18.7935 7.96032 19.1666 7.50008 19.1666C7.03984 19.1666 6.66675 18.7935 6.66675 18.3333V9.99992Z" fill="white"/>
</svg>