<svg xmlns="http://www.w3.org/2000/svg" width="20" height="20" viewBox="0 0 20 20" fill="none">
<path fill-rule="evenodd" clip-rule="evenodd" d="M4.16675 3.33341C3.94573 3.33341 3.73377 3.42121 3.57749 3.57749C3.42121 3.73377 3.33341 3.94573 3.33341 4.16675V15.8334C3.33341 16.0544 3.42121 16.2664 3.57749 16.4227C3.73377 16.579 3.94573 16.6667 4.16675 16.6667H7.50008C7.96032 16.6667 8.33342 17.0398 8.33342 17.5001C8.33342 17.9603 7.96032 18.3334 7.50008 18.3334H4.16675C3.50371 18.3334 2.86782 18.07 2.39898 17.6012C1.93014 17.1323 1.66675 16.4965 1.66675 15.8334V4.16675C1.66675 3.50371 1.93014 2.86782 2.39898 2.39898C2.86782 1.93014 3.50371 1.66675 4.16675 1.66675H7.50008C7.96032 1.66675 8.33342 2.03984 8.33342 2.50008C8.33342 2.96032 7.96032 3.33341 7.50008 3.33341H4.16675Z" fill="#1F1F25"/>
<path fill-rule="evenodd" clip-rule="evenodd" d="M12.7442 5.24416C13.0696 4.91872 13.5972 4.91872 13.9227 5.24416L18.0893 9.41083C18.4148 9.73626 18.4148 10.2639 18.0893 10.5893L13.9227 14.756C13.5972 15.0814 13.0696 15.0814 12.7442 14.756C12.4187 14.4306 12.4187 13.9029 12.7442 13.5775L16.3216 10.0001L12.7442 6.42267C12.4187 6.09723 12.4187 5.5696 12.7442 5.24416Z" fill="#1F1F25"/>
<path fill-rule="evenodd" clip-rule="evenodd" d="M6.66675 10.0001C6.66675 9.53984 7.03984 9.16675 7.50008 9.16675H17.5001C17.9603 9.16675 18.3334 9.53984 18.3334 10.0001C18.3334 10.4603 17.9603 10.8334 17.5001 10.8334H7.50008C7.03984 10.8334 6.66675 10.4603 6.66675 10.0001Z" fill="#1F1F25"/>
</svg>