<svg xmlns="http://www.w3.org/2000/svg" width="20" height="20" viewBox="0 0 20 20" fill="none">
<g clip-path="url(#clip0_384_1275)">
<path fill-rule="evenodd" clip-rule="evenodd" d="M13.3333 12.4999C12.873 12.4999 12.4999 12.873 12.4999 13.3333V16.6666C12.4999 17.1268 12.873 17.4999 13.3333 17.4999H16.6666C17.1268 17.4999 17.4999 17.1268 17.4999 16.6666V13.3333C17.4999 12.873 17.1268 12.4999 16.6666 12.4999H13.3333ZM10.8333 13.3333C10.8333 11.9525 11.9525 10.8333 13.3333 10.8333H16.6666C18.0473 10.8333 19.1666 11.9525 19.1666 13.3333V16.6666C19.1666 18.0473 18.0473 19.1666 16.6666 19.1666H13.3333C11.9525 19.1666 10.8333 18.0473 10.8333 16.6666V13.3333Z" fill="#1F1F25"/>
<path fill-rule="evenodd" clip-rule="evenodd" d="M3.33325 2.49992C2.87301 2.49992 2.49992 2.87301 2.49992 3.33325V6.66658C2.49992 7.12682 2.87301 7.49992 3.33325 7.49992H6.66658C7.12682 7.49992 7.49992 7.12682 7.49992 6.66658V3.33325C7.49992 2.87301 7.12682 2.49992 6.66658 2.49992H3.33325ZM0.833252 3.33325C0.833252 1.95254 1.95254 0.833252 3.33325 0.833252H6.66658C8.0473 0.833252 9.16658 1.95254 9.16658 3.33325V6.66658C9.16658 8.0473 8.0473 9.16658 6.66658 9.16658H3.33325C1.95254 9.16658 0.833252 8.0473 0.833252 6.66658V3.33325Z" fill="#1F1F25"/>
<path fill-rule="evenodd" clip-rule="evenodd" d="M5.83325 10.8333C6.29349 10.8333 6.66658 11.2063 6.66658 11.6666V12.4999C6.66658 12.7209 6.75438 12.9329 6.91066 13.0892C7.06694 13.2455 7.2789 13.3333 7.49992 13.3333H8.33325C8.79349 13.3333 9.16658 13.7063 9.16658 14.1666C9.16658 14.6268 8.79349 14.9999 8.33325 14.9999H7.49992C6.83688 14.9999 6.20099 14.7365 5.73215 14.2677C5.26331 13.7988 4.99992 13.163 4.99992 12.4999V11.6666C4.99992 11.2063 5.37301 10.8333 5.83325 10.8333Z" fill="#1F1F25"/>
<path fill-rule="evenodd" clip-rule="evenodd" d="M10.8333 5.83325C10.8333 5.37301 11.2063 4.99992 11.6666 4.99992H12.4999C13.163 4.99992 13.7988 5.26331 14.2677 5.73215C14.7365 6.20099 14.9999 6.83688 14.9999 7.49992V8.33325C14.9999 8.79349 14.6268 9.16658 14.1666 9.16658C13.7063 9.16658 13.3333 8.79349 13.3333 8.33325V7.49992C13.3333 7.2789 13.2455 7.06694 13.0892 6.91066C12.9329 6.75438 12.7209 6.66658 12.4999 6.66658H11.6666C11.2063 6.66658 10.8333 6.29349 10.8333 5.83325Z" fill="#1F1F25"/>
</g>
<defs>
<clipPath id="clip0_384_1275">
<rect width="20" height="20" fill="white"/>
</clipPath>
</defs>
</svg>